<svg xmlns="http://www.w3.org/2000/svg" viewBox="3598.257 -10912.243 2024.298 2024.298">
  <defs>
    <style>
      .cls-1 {
        fill: #fff;
        fill-rule: evenodd;
      }
    </style>
  </defs>
  <g id="logo-circle" transform="translate(3598.257 -10912.243)">
    <ellipse id="Ellipse_1" data-name="Ellipse 1" cx="1012.149" cy="1012.149" rx="1012.149" ry="1012.149" transform="translate(0 0)"/>
    <path id="j" class="cls-1" d="M776.7,209.04,807.53,395.285,725.537,499.74l22.62,385.8s3.454,143.929-61.723,266.5c-.761,12.675-55.631-98.095-55.631-98.095l-44.572,54.043,44.572-54.043,55.631,98.095,90.267,180.8-74.714,68.938c-72.5-108.188-193.683-175.148-232.534,12.6l-116.267,22.286c-66.133-239.406-248.952-270.921-275.871-589.414-16.891-199.821,329.446-53.418,456.875,16.5,5.089,4.271-53.2,185.874-110.59,223.081-2.164,0-235.589-135.628-191.287-184.629,60.98-67.433,266.277,68.99,266.277,68.99s37.457-84.609,35.6-107.443c-7.852-103.375-22.149-206.216-41.754-308.018l80.907-25.155L414.556,575.911,293.265,278.934S387.9,175.862,559.851,165.183l35.825,166.652-19.11-99.283S708.618,265.794,776.7,209.04Z" transform="translate(524.236 209.915)"/>
  </g>
</svg>
