<svg xmlns="http://www.w3.org/2000/svg" viewBox="3103.719 5576.4 315.563 144.074">
  <defs>
    <style>
      .cls-1 {
        fill-rule: evenodd;
      }
    </style>
  </defs>
  <g id="jesse-logo" transform="translate(3027 5433.527)">
    <path id="e" class="cls-1" d="M531.369,251.67l2.058,11.4s-47.864,30.34-37.715,41.946l-4.389,4.684s-8.091-13.235-9.6-26.471l4.965-5.193,4.91,5.4c3.566.815-19.634-26.585,5.349-43.982,0,0-15.387-4.27-8.728-26.675a22.822,22.822,0,0,0-5.019-22.195v-13.5c3.154-.815,35.828,23.68,35.828,23.68l-1.1,6.515,1.1-6.515-5.349-5.339-.686-10.794s7.955,4.526,18.653-2.4-11.228,35.572-6.995,49.072l-6.721,4.888s-6.033-10.385-4.937-20.973-15.32,24.176,4.566,26.823l-3.194,9.829c-2.249-2.612-27.522-9.829-11.931,16.493C510.343,269.465,531.369,251.67,531.369,251.67Z" transform="translate(-142.337 -22.755)"/>
    <path id="s" class="cls-1" d="M388.876,253.419s-8.42,14.828-26.373,26.8c0,.376-.022,13.22,4.211,18.164,41.438-29.352,32.891,1.191,32.891,1.191l10.931,3.127s-1.526-26.948,22.943-26.055c12.15-21.52,0-36.762,0-36.762-12.221-9.8-28.156-4.773-28.156-4.773s-6.88-6.515,6.5-25.441c0,0,.38,13.126,1.08,16.462l12.117-5.841c-.929-13.109,3.62-43.225,3.62-43.225-5.5,7.01-19.313,2.892-19.313,2.892l1.213,12.062-33.092-12.062-2.087,23.321s19.917,14.91,19.759,14.91-4.07-2.95-4.07-2.716-12.138,17.2-12.138,17.2-10.991,15.642,9.968,20.747c0,0,30.854-3.5,31.04.47.485,10.361-27.833,16.423-27.833,16.423s-.3-9.74,3.324-17.6C395.408,252.716,387.972,253.377,388.876,253.419Z" transform="translate(-100.438 -22.755)"/>
    <path id="s-2" data-name="s" class="cls-1" d="M285.133,249.057s-8.42,14.828-26.374,26.8c0,.376-.022,13.22,4.212,18.163,41.438-29.351,32.892,1.191,32.892,1.191l10.931,3.127s-.672-25.541,11.137-22.481c14.3-19.517,15.36-31.531,14.562-35.732-3.107-16.363-30.912-9.377-30.912-9.377s-7.689-4.206,5.688-23.131c0,0,1.189,10.816,1.889,14.153l12.117-5.842c-.929-13.108,3.62-43.224,3.62-43.224-5.5,7.009-18.412,7.009-18.412,7.009l.314,7.944L290.9,177.843l-6.61,22.2s7.239,13.786,7.082,13.786-2.34-4.908-2.34-4.674-13.869,19.16-13.869,19.16-10.991,15.642,9.968,20.746c0,0,30.855-3.5,31.04.47.485,10.362-27.833,16.424-27.833,16.424s-2.528-7.575,2.922-17.484C291.373,248.466,284.228,249.015,285.133,249.057Z" transform="translate(-63.977 -22.594)"/>
    <path id="e-2" data-name="e" class="cls-1" d="M245.331,244.568l2.057,11.4s-47.864,30.34-37.715,41.946l-4.389,4.684s-8.092-13.235-9.6-26.471l4.966-5.193,4.909,5.4c3.566.815-41.144-35.227,5.348-43.983,0,0-8.3-16.22-2.605-26.674,6.821-12.525,1.371-14.718-1.793-22.2l5.633-6.516c3.154-.815,20.847,16.7,20.847,16.7l-.67,5.907.67-5.907-5.349-5.339v-9.074s7.269,2.807,17.966-4.117-11.227,35.573-6.994,49.073l-6.72,4.888s-6.035-10.385-4.937-20.973-15.321,24.176,4.566,26.823l-3.194,9.828c-2.249-2.611-27.522-9.828-11.932,16.493C224.3,262.363,245.331,244.568,245.331,244.568Z" transform="translate(-39.68 -22.656)"/>
    <path id="j" class="cls-1" d="M149.867,169.767l3.221,19.462-8.569,10.915,2.364,40.316s.361,15.039-6.45,27.854c-.079,1.325-5.814-10.251-5.814-10.251l-4.662,5.648,4.662-5.648,5.814,10.251,9.433,18.894-7.807,7.2c-7.577-11.306-20.239-18.3-24.3,1.316l-12.15,2.33C98.7,273.04,79.594,269.747,76.781,236.464c-1.765-20.881,34.373-5.583,47.69,1.725.532.446-5.506,19.423-11.5,23.312-.226,0-24.619-14.173-19.988-19.294,6.373-7.046,27.706,7.135,27.706,7.135s3.977-8.767,3.784-11.153A283.917,283.917,0,0,0,120.164,206l8.455-2.629-16.591,4.738L99.353,177.075s9.889-10.775,27.859-11.887l3.744,17.415-2-10.375S142.751,175.7,149.867,169.767Z" transform="translate(0 -22.315)"/>
  </g>
</svg>
