<svg xmlns="http://www.w3.org/2000/svg" xmlns:xlink="http://www.w3.org/1999/xlink" viewBox="3242 -529 380 100"><defs><style>.a{clip-path:url(#b);}.b,.c,.d,.e{fill:#fff;}.b{font-size:20px;font-family:Roboto-Light, Roboto;font-weight:300;}.d{font-size:10px;font-family:Roboto-Regular, Roboto;}.e{font-size:50px;font-family:Roboto-Thin, Roboto;font-weight:200;}.f{fill:#111;}</style><clipPath id="b"><rect x="3242" y="-529" width="380" height="100"/></clipPath></defs><g id="a" class="a"><rect class="f" x="3242" y="-529" width="380" height="100"/><text class="b" transform="translate(3279 -472)"><tspan x="0" y="0">pos =</tspan></text><text class="b" transform="translate(3335 -487)"><tspan x="0" y="0">4W</tspan></text><rect class="c" width="30" height="1" transform="translate(3335 -478)"/><rect class="c" width="20" height="1" transform="translate(3486 -476)"/><text class="b" transform="translate(3339 -454)"><tspan x="0" y="0">H</tspan></text><text class="d" transform="translate(3356 -466)"><tspan x="0" y="0">3</tspan></text><text class="d" transform="translate(3527 -500)"><tspan x="0" y="0">3</tspan></text><text class="e" transform="translate(3373 -463)"><tspan x="0" y="0">(</tspan></text><text class="e" transform="translate(3518 -463)"><tspan x="0" y="0">)</tspan></text><text class="b" transform="translate(3390 -470)"><tspan x="0" y="0">scrolled –</tspan></text><text class="b" transform="translate(3488 -482)"><tspan x="0" y="0">H</tspan></text><text class="b" transform="translate(3490 -454)"><tspan x="0" y="0">2</tspan></text><rect class="c" width="20" height="1" transform="translate(3563 -478)"/><text class="b" transform="translate(3563 -484)"><tspan x="0" y="0">W</tspan></text><text class="b" transform="translate(3567 -456)"><tspan x="0" y="0">2</tspan></text><text class="b" transform="translate(3541 -470)"><tspan x="0" y="0">+</tspan></text></g></svg>