<svg xmlns="http://www.w3.org/2000/svg" xmlns:xlink="http://www.w3.org/1999/xlink" viewBox="2063 -1930 890 890"><defs><style>.a{clip-path:url(#b);}.b,.c{fill:#fff;}.c{font-size:16px;font-family:Roboto-Regular, Roboto;}.d{stroke:#1abc9c;}.e{fill:#111;}</style><clipPath id="b"><rect x="2063" y="-1930" width="890" height="890"/></clipPath></defs><g id="a" class="a"><rect class="e" x="2063" y="-1930" width="890" height="890"/><rect class="b" width="550" height="1" transform="translate(2233 -1485)"/><rect class="b" width="550" height="1" transform="translate(2234 -1760) rotate(90)"/><text class="c" transform="translate(2720 -1181)"><tspan x="0" y="0">SCREEN HEIGHT</tspan></text><path class="b" d="M-2046.787,2163.213v-207H-2050l3.213-19.988v-.012h0l1-6.214,1,6.214h0v.008l3.213,19.992h-3.213v207Z" transform="translate(4554.787 -3366.213)"/><text class="c" transform="translate(2432 -1181)"><tspan x="0" y="0">1/2 SCREEN HEIGHT</tspan></text><path class="b" d="M-2046.787,2163.213v-207H-2050l3.213-19.988v-.012h0l1-6.214,1,6.214h0v.008l3.213,19.992h-3.213v207Z" transform="translate(4828.787 -3366.213)"/><text class="c" transform="translate(2154 -1181)"><tspan x="0" y="0">- 1/2 SCREEN WIDTH</tspan></text><text class="c" transform="translate(2154 -1777)"><tspan x="0" y="0">+ 1/2 SCREEN WIDTH</tspan></text><path class="d" d="M2233-1210l550-550"/><text class="c" transform="translate(2797 -1479)"><tspan x="0" y="0">PX SCROLLED</tspan></text><text class="c" transform="translate(2219 -1370) rotate(-90)"><tspan x="0" y="0">AMOUNT OF PX TO TRANSLATE</tspan></text></g></svg>