<svg xmlns="http://www.w3.org/2000/svg" xmlns:xlink="http://www.w3.org/1999/xlink" viewBox="3082 -1930 890 890"><defs><style>.a{clip-path:url(#b);}.b{fill:#95a5a6;}.c,.d{fill:#fff;}.c{font-size:16px;font-family:Roboto-Regular, Roboto;}.e{fill:#1abc9c;}.f{fill:#3498db;}.g{fill:#111;}</style><clipPath id="b"><rect x="3082" y="-1930" width="890" height="890"/></clipPath></defs><g id="a" class="a"><rect class="g" x="3082" y="-1930" width="890" height="890"/><g transform="translate(3082 -1930)"><g transform="translate(0 20)"><path class="b" d="M-2537,1945v-5h-540v5h-5v-15h5v5h540v-5h5v15Z" transform="translate(3252 -1205)"/><text class="c" transform="translate(445 755)"><tspan x="-56.547" y="0">SCREEN WIDTH</tspan></text></g><g transform="translate(-19)"><path class="b" d="M-2537,1945v-5h-540v5h-5v-15h5v5h540v-5h5v15Z" transform="translate(-1780 -2362) rotate(-90)"/><text class="c" transform="translate(146 445) rotate(-90)"><tspan x="-59.895" y="0">SCREEN HEIGHT</tspan></text></g></g><g transform="translate(3280 -2654)"><rect class="d" width="30" height="30" transform="translate(170 752)"/><text class="c" transform="translate(210 773)"><tspan x="0" y="0">THE SCREEN</tspan></text><g transform="translate(0 35)"><rect class="e" width="30" height="30" transform="translate(170 752)"/><text class="c" transform="translate(210 773)"><tspan x="0" y="0">DEAD CENTER</tspan></text></g><g transform="translate(0 69)"><circle class="f" cx="15" cy="15" r="15" transform="translate(170 753)"/><text class="c" transform="translate(210 774)"><tspan x="0" y="0">THE ELEMENT</tspan></text></g></g><g transform="translate(3082 -1930)"><rect class="d" width="550" height="550" transform="translate(720 170) rotate(90)"/><path d="M-2807.5,2480V2206.5H-3082v-1h274.5V1930h1v275.5H-2532v1h-274.5V2480Z" transform="translate(3252.5 -1760)"/><circle class="e" cx="5.5" cy="5.5" r="5.5" transform="translate(440 440)"/><circle class="f" cx="15" cy="15" r="15" transform="translate(156 155)"/><circle class="f" cx="15" cy="15" r="15" transform="translate(292 291)"/><circle class="f" cx="15" cy="15" r="15" transform="translate(568 568)"/><circle class="f" cx="15" cy="15" r="15" transform="translate(706 705)"/><text class="c" transform="translate(781 175)"><tspan x="0" y="0">0px scrolled</tspan></text><text class="c" transform="translate(731 313)"><tspan x="0" y="0">1/4 screen scrolled</tspan></text><text class="c" transform="translate(731 588)"><tspan x="0" y="0">3/4 screen scrolled</tspan></text><text class="c" transform="translate(759 726)"><tspan x="0" y="0">screen scrolled</tspan></text></g></g></svg>