<svg xmlns="http://www.w3.org/2000/svg" xmlns:xlink="http://www.w3.org/1999/xlink" viewBox="2013 -2953 1280 800"><defs><style>.a{clip-path:url(#b);}.b{fill:rgba(231,76,60,0.3);}.c{fill:none;stroke:#f1c40f;}.d{fill:#111;}</style><clipPath id="b"><rect x="2013" y="-2953" width="1280" height="800"/></clipPath></defs><g id="a" class="a"><rect class="d" x="2013" y="-2953" width="1280" height="800"/><g transform="translate(2013 -2953)"><circle class="b" cx="50" cy="50" r="50" transform="translate(590 350)"/><circle class="b" cx="50" cy="50" r="50" transform="translate(606 340)"/><circle class="b" cx="50" cy="50" r="50" transform="translate(622 330)"/><circle class="b" cx="50" cy="50" r="50" transform="translate(638 320)"/><circle class="b" cx="50" cy="50" r="50" transform="translate(654 310)"/><circle class="b" cx="50" cy="50" r="50" transform="translate(670 300)"/><circle class="b" cx="50" cy="50" r="50" transform="translate(686 290)"/><circle class="b" cx="50" cy="50" r="50" transform="translate(702 280)"/><circle class="b" cx="50" cy="50" r="50" transform="translate(718 270)"/><circle class="b" cx="50" cy="50" r="50" transform="translate(734 260)"/><circle class="b" cx="50" cy="50" r="50" transform="translate(750 250)"/><circle class="b" cx="50" cy="50" r="50" transform="translate(768 240)"/><circle class="b" cx="50" cy="50" r="50" transform="translate(784 230)"/><circle class="b" cx="50" cy="50" r="50" transform="translate(800 220)"/><circle class="b" cx="50" cy="50" r="50" transform="translate(816 210)"/><circle class="b" cx="50" cy="50" r="50" transform="translate(832 200)"/><circle class="b" cx="50" cy="50" r="50" transform="translate(848 190)"/><circle class="b" cx="50" cy="50" r="50" transform="translate(864 180)"/><circle class="b" cx="50" cy="50" r="50" transform="translate(880 170)"/><circle class="b" cx="50" cy="50" r="50" transform="translate(896 160)"/><circle class="b" cx="50" cy="50" r="50" transform="translate(912 150)"/><circle class="b" cx="50" cy="50" r="50" transform="translate(928 140)"/><circle class="b" cx="50" cy="50" r="50" transform="translate(946 130)"/><circle class="b" cx="50" cy="50" r="50" transform="translate(962 120)"/><circle class="b" cx="50" cy="50" r="50" transform="translate(978 110)"/><circle class="b" cx="50" cy="50" r="50" transform="translate(994 100)"/><circle class="b" cx="50" cy="50" r="50" transform="translate(1010 90)"/><circle class="b" cx="50" cy="50" r="50" transform="translate(1026 80)"/><circle class="b" cx="50" cy="50" r="50" transform="translate(1042 70)"/><circle class="b" cx="50" cy="50" r="50" transform="translate(1058 60)"/><circle class="b" cx="50" cy="50" r="50" transform="translate(1074 50)"/><circle class="b" cx="50" cy="50" r="50" transform="translate(1090 40)"/><circle class="b" cx="50" cy="50" r="50" transform="translate(1106 30)"/><circle class="b" cx="50" cy="50" r="50" transform="translate(1124 20)"/><circle class="b" cx="50" cy="50" r="50" transform="translate(1140 10)"/><circle class="b" cx="50" cy="50" r="50" transform="translate(1156)"/><circle class="b" cx="50" cy="50" r="50" transform="translate(1172 -10)"/><circle class="b" cx="50" cy="50" r="50" transform="translate(1188 -20)"/><circle class="b" cx="50" cy="50" r="50" transform="translate(1204 -30)"/><circle class="b" cx="50" cy="50" r="50" transform="translate(1220 -40)"/><circle class="b" cx="50" cy="50" r="50" transform="translate(1236 -50)"/><circle class="b" cx="50" cy="50" r="50" transform="translate(1252 -60)"/><circle class="b" cx="50" cy="50" r="50" transform="translate(1268 -70)"/><circle class="b" cx="50" cy="50" r="50" transform="translate(-58 750)"/><circle class="b" cx="50" cy="50" r="50" transform="translate(-42 740)"/><circle class="b" cx="50" cy="50" r="50" transform="translate(-26 730)"/><circle class="b" cx="50" cy="50" r="50" transform="translate(-10 720)"/><circle class="b" cx="50" cy="50" r="50" transform="translate(6 710)"/><circle class="b" cx="50" cy="50" r="50" transform="translate(22 700)"/><circle class="b" cx="50" cy="50" r="50" transform="translate(38 690)"/><circle class="b" cx="50" cy="50" r="50" transform="translate(54 680)"/><circle class="b" cx="50" cy="50" r="50" transform="translate(72 670)"/><circle class="b" cx="50" cy="50" r="50" transform="translate(88 660)"/><circle class="b" cx="50" cy="50" r="50" transform="translate(104 650)"/><circle class="b" cx="50" cy="50" r="50" transform="translate(120 640)"/><circle class="b" cx="50" cy="50" r="50" transform="translate(136 630)"/><circle class="b" cx="50" cy="50" r="50" transform="translate(152 620)"/><circle class="b" cx="50" cy="50" r="50" transform="translate(168 610)"/><circle class="b" cx="50" cy="50" r="50" transform="translate(184 600)"/><circle class="b" cx="50" cy="50" r="50" transform="translate(200 590)"/><circle class="b" cx="50" cy="50" r="50" transform="translate(216 580)"/><circle class="b" cx="50" cy="50" r="50" transform="translate(232 570)"/><circle class="b" cx="50" cy="50" r="50" transform="translate(250 560)"/><circle class="b" cx="50" cy="50" r="50" transform="translate(266 550)"/><circle class="b" cx="50" cy="50" r="50" transform="translate(282 540)"/><circle class="b" cx="50" cy="50" r="50" transform="translate(298 530)"/><circle class="b" cx="50" cy="50" r="50" transform="translate(314 520)"/><circle class="b" cx="50" cy="50" r="50" transform="translate(330 510)"/><circle class="b" cx="50" cy="50" r="50" transform="translate(346 500)"/><circle class="b" cx="50" cy="50" r="50" transform="translate(362 490)"/><circle class="b" cx="50" cy="50" r="50" transform="translate(378 480)"/><circle class="b" cx="50" cy="50" r="50" transform="translate(394 470)"/><circle class="b" cx="50" cy="50" r="50" transform="translate(410 460)"/><circle class="b" cx="50" cy="50" r="50" transform="translate(428 450)"/><circle class="b" cx="50" cy="50" r="50" transform="translate(444 440)"/><circle class="b" cx="50" cy="50" r="50" transform="translate(460 430)"/><circle class="b" cx="50" cy="50" r="50" transform="translate(476 420)"/><circle class="b" cx="50" cy="50" r="50" transform="translate(492 410)"/><circle class="b" cx="50" cy="50" r="50" transform="translate(508 400)"/><circle class="b" cx="50" cy="50" r="50" transform="translate(524 390)"/><circle class="b" cx="50" cy="50" r="50" transform="translate(540 380)"/><circle class="b" cx="50" cy="50" r="50" transform="translate(556 370)"/><circle class="b" cx="50" cy="50" r="50" transform="translate(572 360)"/><circle class="b" cx="50" cy="50" r="50" transform="translate(-90 770)"/><circle class="b" cx="50" cy="50" r="50" transform="translate(-74 760)"/></g><path class="c" d="M2013-2153s639.367,2.216,640-400,640-400,640-400"/><path class="c" d="M3293-2953,2013-2153"/></g></svg>