<svg xmlns="http://www.w3.org/2000/svg" xmlns:xlink="http://www.w3.org/1999/xlink" viewBox="14801 -5243 1280 800">
  <defs>
    <style>
      .cls-1 {
        clip-path: url(#clip-thumbnail);
      }

      .cls-2 {
        fill: rgba(231,76,60,0.4);
      }

      .cls-3 {
        fill: none;
        stroke: #f1c40f;
      }

      .cls-4 {
        fill: #111;
      }
    </style>
    <clipPath id="clip-thumbnail">
      <rect x="14801" y="-5243" width="1280" height="800"/>
    </clipPath>
  </defs>
  <g id="thumbnail" class="cls-1">
    <rect class="cls-4" x="14801" y="-5243" width="1280" height="800"/>
    <g id="elipses" transform="translate(14801 -5243)">
      <circle id="Ellipse_29" data-name="Ellipse 29" class="cls-2" cx="50" cy="50" r="50" transform="translate(590 350)"/>
      <circle id="Ellipse_32" data-name="Ellipse 32" class="cls-2" cx="50" cy="50" r="50" transform="translate(638 320)"/>
      <circle id="Ellipse_35" data-name="Ellipse 35" class="cls-2" cx="50" cy="50" r="50" transform="translate(686 290)"/>
      <circle id="Ellipse_38" data-name="Ellipse 38" class="cls-2" cx="50" cy="50" r="50" transform="translate(734 260)"/>
      <circle id="Ellipse_41" data-name="Ellipse 41" class="cls-2" cx="50" cy="50" r="50" transform="translate(784 230)"/>
      <circle id="Ellipse_44" data-name="Ellipse 44" class="cls-2" cx="50" cy="50" r="50" transform="translate(832 200)"/>
      <circle id="Ellipse_47" data-name="Ellipse 47" class="cls-2" cx="50" cy="50" r="50" transform="translate(880 170)"/>
      <circle id="Ellipse_50" data-name="Ellipse 50" class="cls-2" cx="50" cy="50" r="50" transform="translate(928 140)"/>
      <circle id="Ellipse_53" data-name="Ellipse 53" class="cls-2" cx="50" cy="50" r="50" transform="translate(978 110)"/>
      <circle id="Ellipse_56" data-name="Ellipse 56" class="cls-2" cx="50" cy="50" r="50" transform="translate(1026 80)"/>
      <circle id="Ellipse_59" data-name="Ellipse 59" class="cls-2" cx="50" cy="50" r="50" transform="translate(1074 50)"/>
      <circle id="Ellipse_62" data-name="Ellipse 62" class="cls-2" cx="50" cy="50" r="50" transform="translate(1124 20)"/>
      <circle id="Ellipse_65" data-name="Ellipse 65" class="cls-2" cx="50" cy="50" r="50" transform="translate(1172 -10)"/>
      <circle id="Ellipse_68" data-name="Ellipse 68" class="cls-2" cx="50" cy="50" r="50" transform="translate(1220 -40)"/>
      <circle id="Ellipse_75" data-name="Ellipse 75" class="cls-2" cx="50" cy="50" r="50" transform="translate(-42 740)"/>
      <circle id="Ellipse_78" data-name="Ellipse 78" class="cls-2" cx="50" cy="50" r="50" transform="translate(6 710)"/>
      <circle id="Ellipse_81" data-name="Ellipse 81" class="cls-2" cx="50" cy="50" r="50" transform="translate(54 680)"/>
      <circle id="Ellipse_84" data-name="Ellipse 84" class="cls-2" cx="50" cy="50" r="50" transform="translate(104 650)"/>
      <circle id="Ellipse_87" data-name="Ellipse 87" class="cls-2" cx="50" cy="50" r="50" transform="translate(152 620)"/>
      <circle id="Ellipse_90" data-name="Ellipse 90" class="cls-2" cx="50" cy="50" r="50" transform="translate(200 590)"/>
      <circle id="Ellipse_93" data-name="Ellipse 93" class="cls-2" cx="50" cy="50" r="50" transform="translate(250 560)"/>
      <circle id="Ellipse_96" data-name="Ellipse 96" class="cls-2" cx="50" cy="50" r="50" transform="translate(298 530)"/>
      <circle id="Ellipse_99" data-name="Ellipse 99" class="cls-2" cx="50" cy="50" r="50" transform="translate(346 500)"/>
      <circle id="Ellipse_102" data-name="Ellipse 102" class="cls-2" cx="50" cy="50" r="50" transform="translate(394 470)"/>
      <circle id="Ellipse_105" data-name="Ellipse 105" class="cls-2" cx="50" cy="50" r="50" transform="translate(444 440)"/>
      <circle id="Ellipse_108" data-name="Ellipse 108" class="cls-2" cx="50" cy="50" r="50" transform="translate(492 410)"/>
      <circle id="Ellipse_111" data-name="Ellipse 111" class="cls-2" cx="50" cy="50" r="50" transform="translate(540 380)"/>
    </g>
    <path id="curved" class="cls-3" d="M2013-2153s639.367,2.216,640-400,640-400,640-400" transform="translate(12788 -2290)"/>
    <path id="straight" class="cls-3" d="M3293-2953,2013-2153" transform="translate(12788 -2290)"/>
  </g>
</svg>
