<?xml version="1.0" standalone="no"?>
<!DOCTYPE svg PUBLIC "-//W3C//DTD SVG 20010904//EN"
 "http://www.w3.org/TR/2001/REC-SVG-20010904/DTD/svg10.dtd">
<svg version="1.0" xmlns="http://www.w3.org/2000/svg"
 width="2000.000000pt" height="2000.000000pt" viewBox="0 0 2000.000000 2000.000000"
 preserveAspectRatio="xMidYMid meet">
<metadata>
Created by potrace 1.11, written by Peter Selinger 2001-2013
</metadata>
<g transform="translate(0.000000,2000.000000) scale(0.100000,-0.100000)"
fill="#000000" stroke="none">
<path d="M9535 19989 c-1001 -50 -1965 -240 -2880 -566 -1628 -581 -3031
-1533 -4180 -2840 -866 -985 -1545 -2168 -1960 -3419 -840 -2531 -645 -5266
547 -7649 369 -737 871 -1483 1416 -2105 292 -332 686 -720 1037 -1020 965
-825 2122 -1479 3325 -1877 2061 -683 4259 -683 6320 0 701 232 1450 582 2080
970 1022 630 1943 1459 2671 2402 1186 1539 1890 3351 2054 5290 113 1336 -52
2705 -481 3992 -700 2100 -2093 3925 -3934 5150 -1096 729 -2262 1214 -3560
1482 -783 161 -1668 229 -2455 190z m1268 -3801 c2 -7 24 -121 48 -253 23
-132 47 -243 52 -247 17 -11 156 -29 307 -39 409 -28 1014 64 1558 236 91 29
156 45 161 39 7 -8 174 -818 267 -1298 36 -186 36 -190 21 -240 -81 -257 -391
-487 -804 -597 -65 -17 -119 -32 -121 -34 -2 -1 8 -117 22 -256 122 -1218 187
-2450 188 -3534 0 -1340 -92 -2212 -297 -2805 -41 -118 -111 -272 -156 -341
-16 -25 -29 -51 -29 -57 0 -6 205 -428 456 -939 250 -510 456 -931 457 -934 1
-4 -151 -147 -338 -319 -187 -172 -357 -329 -378 -349 l-38 -36 -22 30 c-146
201 -439 518 -617 667 -187 157 -377 270 -553 330 -76 26 -112 32 -207 36
-145 5 -206 -7 -322 -65 -161 -81 -306 -247 -423 -488 -69 -141 -132 -313
-180 -490 -20 -77 -40 -143 -44 -147 -12 -14 -1092 -218 -1153 -218 -12 0 -19
16 -28 73 -59 369 -228 829 -448 1217 -188 332 -355 544 -705 900 -148 150
-266 279 -324 356 -553 730 -1009 1836 -1130 2744 -28 206 -25 613 4 775 70
388 248 655 528 793 307 151 644 154 1356 11 463 -93 935 -228 1329 -382 457
-178 920 -427 1167 -627 l71 -59 6 32 c28 160 32 1255 7 1602 -46 604 -116
1075 -226 1502 -75 292 -142 448 -231 541 -43 45 -55 52 -88 52 -75 0 -137
-62 -211 -210 -41 -81 -125 -327 -146 -425 -6 -33 -15 -64 -19 -68 -8 -9 -214
313 -383 595 -515 861 -751 1497 -707 1904 21 187 87 336 204 461 259 277 711
429 1556 523 151 17 438 43 536 49 12 0 24 -5 27 -11z"/>
<path d="M7803 9185 c-115 -31 -187 -89 -232 -184 -24 -51 -26 -66 -26 -181 1
-103 6 -142 27 -220 73 -265 250 -585 495 -895 112 -143 422 -451 543 -541
312 -233 587 -327 767 -264 254 89 545 505 628 895 22 106 20 262 -5 329 -45
118 -162 261 -320 389 -182 147 -502 331 -785 452 -221 94 -538 191 -725 221
-109 18 -299 17 -367 -1z"/>
</g>
</svg>
