<svg version="1" xmlns="http://www.w3.org/2000/svg" width="3372" height="3372" viewBox="0 0 2529.000000 2529.000000"><path d="M1223.5.6c-131.4 4.3-262.7 29.5-387 74.1-132 47.4-255.6 116.7-364.6 204.5-99.9 80.4-186.8 175.3-257.8 281.2C94.5 739.1 22.6 944 4.6 1158c-3.5 40.5-4 55.9-4 106s.5 65.5 4 106c16.9 200.6 81.1 393.4 187.7 564 64.9 103.8 139.3 191.7 234.2 276.6 128.8 115.2 294.9 209 460.5 259.7 104.1 32 196 48.7 306.5 55.9 24.9 1.6 116.1 1.6 141 0 179.3-11.7 340.3-54.5 494.6-131.8 126.5-63.2 239.1-145.2 337.9-246 146.2-149.1 253.8-333.7 311.5-534.4 23.1-80.5 37.7-159.2 44.9-243 3.4-39 4.1-57.5 4.1-107.5-.1-49.6-.7-65.3-4.1-106-20.4-243-111.5-476.3-261.3-668.9-84.4-108.5-183.8-200.7-300.2-278.4C1815 112.3 1639.8 43.9 1464 16.1 1396.7 5.4 1346.1 1.2 1277 .6c-23.9-.2-48-.2-53.5 0zm130.9 470.1c.2 1 8 37.1 17.3 80.1 9.2 43.1 16.9 77.9 17.1 77.4.1-.5-2.9-17.5-6.8-37.7-3.9-20.2-6.9-36.9-6.6-37.2.2-.2 4.6.4 9.8 1.5 13.7 3 33.1 5.9 51.3 7.8 19.8 2.1 63 2.4 79.5.5 43-4.8 79.5-17.3 102.7-35.3 3-2.2 5.6-3.9 5.8-3.6.3.2 9.1 52.4 19.6 116l19.1 115.6-51.1 65.2-51.2 65.2 14.1 240.6c13.2 224.1 14.2 242.3 13.6 263.2-2.3 89.3-23.2 189.8-55.6 266.6-5.6 13.2-20.2 43.4-21 43.4-.3 0-14.3-24.1-30.9-53.5-16.7-29.4-30.5-53.5-30.7-53.5-.6 0 13.2 27.4 24.4 48.5 20.5 38.7 32.8 59.3 36 60.2 1.2.3 20.7 38.4 57.9 112.7l56.1 112.2-39.7 36.6c-21.8 20.1-42.8 39.5-46.7 43.2l-7.1 6.6-3.8-5.8c-2.1-3.1-7.9-11.1-12.8-17.6-33.5-44.4-70.9-77.6-107.2-95.2-45.5-22-84.1-16.8-114.5 15.3-21.6 22.8-38.2 58.8-49.4 107.3l-2.7 11.6-72.1 13.8c-39.6 7.6-72.4 13.4-72.8 12.9-.5-.4-2.2-5.5-3.9-11.3-13-44.8-34.1-94.1-58.9-137.5-20.8-36.4-40.1-64.6-81.6-119.5-43.6-57.7-53.2-70.5-64.8-87.1-80.6-114.3-118.8-218.3-134.4-365.9-5.6-52.9 2.3-84.9 26.8-108.7 46.1-44.8 150.4-41.1 303.1 10.7 49.2 16.7 97.8 36.2 150.1 60.5 21.6 10 64.3 31.1 79.4 39.3 5 2.8 9.2 4.7 9.2 4.3 0-.4-.9-11.5-2-24.7-9.7-114.3-23.6-218.3-44.2-330.8-3.4-18.7-4.7-28-4-28.5.6-.3 15.5-5.1 33.1-10.6 17.6-5.4 31.9-10 31.7-10.2-.2-.2-36.9 10.1-81.5 22.8-44.6 12.8-81.4 23-81.7 22.7-.2-.3-34.5-83.7-76-185.4l-75.5-184.9 9.3-8.9c12.1-11.6 31.7-27.3 48.7-39 73.7-50.7 159.7-82.3 250.6-92 19.1-2 24.3-2 24.9.1z"/><path d="M1389.2 632c0 1.4.2 1.9.5 1.2.2-.6.2-1.8 0-2.5-.3-.6-.5-.1-.5 1.3zM1390.2 637c0 1.4.2 1.9.5 1.2.2-.6.2-1.8 0-2.5-.3-.6-.5-.1-.5 1.3zM1391.1 641.6c0 1.1.3 1.4.6.6.3-.7.2-1.6-.1-1.9-.3-.4-.6.2-.5 1.3zM1392.1 646.6c0 1.1.3 1.4.6.6.3-.7.2-1.6-.1-1.9-.3-.4-.6.2-.5 1.3zM1340.8 933.7c.7.3 1.6.2 1.9-.1.4-.3-.2-.6-1.3-.5-1.1 0-1.4.3-.6.6zM985.5 1367.5c-15 2.8-27.9 9.2-37.5 18.5-7.9 7.7-9.5 11.5-9.4 22 0 10 2.8 17.6 10.9 30 25.3 39.2 94.6 95.7 191.5 156.2 29.9 18.7 41.5 25.1 44 24.3 3.1-1 20.2-17.6 27.6-27 17.9-22.3 38.5-58.1 57.2-99.5 7.8-17.2 23.4-55.1 22.9-55.6-.2-.2-3.9 8-8.2 18.2-4.4 10.2-8.2 18.7-8.5 18.9-.3.1-6.9-3.7-14.7-8.6-47.2-29.5-110.5-61.5-153.2-77.4-26.7-9.9-52.8-16.9-74.3-20-12.6-1.8-38.7-1.8-48.3 0zM1316.1 1367.6c0 1.1.3 1.4.6.6.3-.7.2-1.6-.1-1.9-.3-.4-.6.2-.5 1.3z"/></svg>